# File produced by Open Asset Import Library (http://www.assimp.sf.net)
# (assimp v3.1.128981410)

mtllib BookTwo.mtl

# vertex positions
v 0.016390 0.653819 2.383926
v 0.016390 0.653819 2.092505
v -0.588828 0.653819 2.092505
v -0.588828 0.653819 2.383926
v -0.584284 0.561831 2.381794
v 0.008997 0.561831 2.383926
v 0.008997 0.652681 2.383926
v -0.584284 0.652681 2.381794
v -0.589153 0.562010 2.096438
v -0.588863 0.562743 2.379169
v -0.588863 0.651770 2.379169
v -0.589153 0.651037 2.096438
v -0.588828 0.560694 2.383926
v -0.588828 0.560694 2.092505
v 0.016390 0.560694 2.092505
v 0.016390 0.560694 2.383926
v 0.016390 0.563018 2.376652
v 0.016390 0.563018 2.099778
v 0.016390 0.651495 2.099778
v 0.016390 0.651495 2.376652
v 0.014511 0.655080 2.090768
v 0.014511 0.581557 1.808774
v -0.590708 0.581557 1.808774
v -0.590708 0.655080 2.090768

# UV coordinates
vt 0.500106 0.499894
vt 0.500106 0.000106
vt 0.999894 0.000106
vt 0.999894 0.499894
vt 0.999844 0.495931
vt 0.501663 0.495931
vt 0.501663 0.000156
vt 0.999844 0.000156
vt 0.987468 0.496242
vt 0.987468 0.989295
vt 0.501663 0.993236
vt 0.501663 0.500184
vt 0.996814 0.998055
vt 0.505225 0.998055
vt 0.505225 0.506466
vt 0.996814 0.506466
vt 0.000156 0.500156
vt 0.499844 0.500156
vt 0.499844 0.999844
vt 0.000156 0.999844
vt 0.000156 0.004935
vt 0.011598 0.013321
vt 0.012894 0.510287
vt 0.004141 0.518652
vt 0.501351 0.000156
vt 0.489878 0.008798
vt 0.484939 0.513178
vt 0.501351 0.521131
vt 0.327041 0.023817
vt 0.332083 0.029970
vt 0.327229 0.327448
vt 0.322110 0.333576
vt 0.683603 0.359886
vt 0.677422 0.353245
vt 0.677457 0.006740
vt 0.683603 0.000190
vt 0.685071 0.646773
vt 0.679956 0.644576
vt 0.679930 0.353735
vt 0.685071 0.348594
vt 0.007843 0.966646
vt 0.000168 0.961172
vt 0.000156 0.525429
vt 0.007843 0.521443
vt 0.625000 0.500000
vt 0.618760 0.506240
vt 0.381240 0.506240
vt 0.375000 0.500000
vt 0.375000 0.750000
vt 0.381240 0.743760
vt 0.618760 0.743760
vt 0.625000 0.750000
vt 0.000106 0.624274
vt 0.000106 0.000106
vt 0.499894 0.000106
vt 0.499894 0.624275

# vertex normals
vn 0.000000 1.000000 0.000000
vn -0.003600 0.000000 0.999994
vn -1.000000 0.000000 0.001000
vn 0.000000 -1.000000 0.000000
vn 1.000000 0.000000 0.000000
vn 0.000000 0.000000 -1.000000
vn -0.994366 -0.105996 0.000600
vn -0.999973 0.000000 0.007300
vn -0.996608 0.000000 -0.082301
vn -0.997251 0.074096 0.000400
vn 0.424593 0.000000 0.905384
vn 0.000000 0.000000 1.000000
vn -0.001300 -0.682802 0.730602
vn -0.001300 0.682802 0.730602
vn 0.000000 0.967652 -0.252288

# Mesh
g Cube
usemtl 1001
f 1/1/1 2/2/1 3/3/1
f 3/3/1 4/4/1 1/1/1
f 5/5/2 6/6/2 7/7/2
f 7/7/2 8/8/2 5/5/2
f 9/9/3 10/10/3 11/11/3
f 11/11/3 12/12/3 9/9/3
f 13/2/4 14/3/4 15/4/4
f 15/4/4 16/1/4 13/2/4
f 17/13/5 18/14/5 19/15/5
f 19/15/5 20/16/5 17/13/5
f 15/17/6 14/18/6 3/19/6
f 3/19/6 2/20/6 15/17/6
f 13/21/7 10/22/7 9/23/7
f 9/23/7 14/24/7 13/21/7
f 4/25/8 11/26/8 10/22/8
f 10/22/8 13/21/8 4/25/8
f 14/24/9 9/23/9 12/27/9
f 12/27/9 3/28/9 14/24/9
f 3/28/10 12/27/10 11/26/10
f 11/26/10 4/25/10 3/28/10
f 13/29/11 5/30/11 8/31/11
f 8/31/11 4/32/11 13/29/11
f 1/33/12 7/34/12 6/35/12
f 6/35/12 16/36/12 1/33/12
f 4/37/13 8/38/13 7/39/13
f 7/39/13 1/40/13 4/37/13
f 16/41/14 6/42/14 5/43/14
f 5/43/14 13/44/14 16/41/14
f 2/45/5 19/46/5 18/47/5
f 18/47/5 15/48/5 2/45/5
f 16/49/5 17/50/5 20/51/5
f 20/51/5 1/52/5 16/49/5
f 1/52/5 20/51/5 19/46/5
f 19/46/5 2/45/5 1/52/5
f 15/48/5 18/47/5 17/50/5
f 17/50/5 16/49/5 15/48/5
f 21/53/15 22/54/15 23/55/15
f 23/55/15 24/56/15 21/53/15
