# File produced by Open Asset Import Library (http://www.assimp.sf.net)
# (assimp v3.1.128981410)

mtllib BookThree.mtl

# vertex positions
v -0.200441 0.225840 0.296686
v -0.216592 0.229493 -0.128516
v 0.314936 0.283176 -0.148248
v 0.331086 0.279523 0.276877
v -0.215029 0.232261 -0.123616
v -0.200772 0.229125 0.296728
v -0.205824 0.279381 0.296686
v -0.220082 0.282517 -0.122992
v -0.222305 0.286320 -0.127811
v 0.309223 0.340002 -0.147542
v 0.325373 0.336349 0.276683
v -0.206155 0.282666 0.297427
v 0.330756 0.282808 0.276918
v 0.325703 0.333064 0.277339
v 0.317762 0.288420 -0.139976
v 0.312710 0.338676 -0.139352
v -0.252158 0.269684 -0.500763
v 0.279370 0.323367 -0.520494
v 0.286066 0.331902 -0.497566
v -0.245461 0.278219 -0.477834
v 0.309675 0.335508 -0.147596
v 0.292266 0.342658 -0.512414
v 0.292718 0.338163 -0.512468
v 0.297369 0.349557 -0.499943
v -0.234159 0.295874 -0.480212
v -0.230377 0.301061 -0.471908
v 0.301151 0.354744 -0.491639
v 0.300466 0.352854 -0.481125
v -0.231062 0.299172 -0.461394
v -0.226322 0.306172 -0.457312
v 0.305205 0.359855 -0.477043
v 0.309169 0.364992 -0.464545
v -0.222359 0.311309 -0.444813
v -0.222078 0.229033 -0.127824
v -0.205928 0.225380 0.297301
v 0.325691 0.336277 0.285491
v -0.205836 0.282594 0.306234
v -0.212040 0.282072 0.297657
v -0.211709 0.278787 0.297614
v -0.227791 0.285859 -0.127119
v 0.330219 0.333766 0.277134
v 0.317225 0.339378 -0.139760
v -0.211310 0.278921 0.297966
v -0.211641 0.282206 0.298006
v 0.335590 0.283437 0.284887
v 0.331074 0.282736 0.284792
v 0.331405 0.279451 0.284749
v 0.335920 0.280152 0.284846
v 0.313738 0.340704 -0.147951
v 0.329889 0.337051 0.276254
v -0.220516 0.231801 -0.122924
v -0.225568 0.282057 -0.122300
v -0.206258 0.228665 0.297456
v -0.205506 0.279309 0.306192
v 0.326022 0.332992 0.285448
v -0.200453 0.229053 0.305536
v -0.200123 0.225768 0.305493
v -0.206327 0.225246 0.296915
v -0.206008 0.225174 0.305722
v 0.319451 0.283878 -0.148656
v 0.322278 0.289122 -0.140384
v 0.335272 0.283509 0.276510
v 0.335602 0.280224 0.276469
v 0.330537 0.333694 0.285511
v 0.330207 0.336979 0.285061
v -0.211721 0.282000 0.306464
v -0.211391 0.278715 0.306421
v -0.206339 0.228458 0.305765
v -0.206657 0.228530 0.296958
v -0.238810 0.284481 -0.492736
v -0.221853 0.281825 -0.127865
v -0.239261 0.288975 -0.492683
v -0.241359 0.284223 -0.492620
v -0.241811 0.288717 -0.492566
v -0.242444 0.284113 -0.492570
v -0.242896 0.288607 -0.492516
v -0.224402 0.281568 -0.127748
v -0.224854 0.286062 -0.127694
v -0.227023 0.285843 -0.127595
v -0.225939 0.285952 -0.127645
v -0.225487 0.281458 -0.127698
v -0.226571 0.281348 -0.127649
v -0.243527 0.284004 -0.492521
v -0.243979 0.288498 -0.492467
v 0.308749 0.341312 -0.156730
v -0.222778 0.287629 -0.136999

# UV coordinates
vt 0.375000 0.250000
vt 0.375000 0.000000
vt 0.625000 0.000000
vt 0.625000 0.250000
vt 0.207738 0.562082
vt 0.207768 0.283520
vt 0.415195 0.282011
vt 0.415195 0.560131
vt 0.375000 0.750000
vt 0.375000 0.500000
vt 0.625000 0.500000
vt 0.625000 0.750000
vt 0.000629 0.000295
vt 0.140422 0.000326
vt 0.140422 0.497442
vt 0.000295 0.497446
vt 0.611968 0.500029
vt 0.611968 0.997147
vt 0.508817 0.997154
vt 0.508829 0.500052
vt 0.415136 0.000094
vt 0.415136 0.276475
vt 0.207738 0.281823
vt 0.207752 0.005576
vt 0.269523 0.513765
vt 0.141013 0.497411
vt 0.141013 0.000295
vt 0.269523 0.016649
vt 0.508226 0.497411
vt 0.390977 0.507563
vt 0.390977 0.010448
vt 0.508226 0.000295
vt 0.403438 0.653164
vt 0.393721 0.653191
vt 0.393721 0.526466
vt 0.403438 0.526439
vt 0.625661 0.499438
vt 0.508817 0.497411
vt 0.508817 0.000295
vt 0.625661 0.002323
vt 0.626252 0.006019
vt 0.741905 0.000295
vt 0.741905 0.497411
vt 0.626252 0.503134
vt 0.111913 0.999705
vt 0.000295 0.995152
vt 0.000295 0.498036
vt 0.111913 0.502589
vt 0.855891 0.009744
vt 0.969273 0.000295
vt 0.969273 0.497411
vt 0.855890 0.506859
vt 0.855300 0.510574
vt 0.742496 0.497410
vt 0.742496 0.000295
vt 0.855300 0.013459
vt 0.617577 0.787550
vt 0.612559 0.787579
vt 0.612559 0.500058
vt 0.617577 0.500029
vt 0.360549 0.750000
vt 0.860549 0.750000
vt 0.860549 0.512033
vt 0.120679 0.498036
vt 0.120128 0.502831
vt 0.112504 0.502864
vt 0.113055 0.498069
vt 0.293164 0.640782
vt 0.288881 0.640703
vt 0.288881 0.500908
vt 0.293164 0.500994
vt 0.113316 0.416811
vt 0.105331 0.397418
vt 0.105332 0.028856
vt 0.113316 0.000066
vt 0.610549 0.487967
vt 0.610549 0.250000
vt 0.041748 0.500599
vt 0.017647 0.500771
vt 0.021596 0.005869
vt 0.041748 0.000066
vt 0.308091 0.501109
vt 0.313229 0.500908
vt 0.313229 0.507651
vt 0.308086 0.507855
vt 0.277418 0.500908
vt 0.282557 0.501032
vt 0.282557 0.641159
vt 0.277415 0.640999
vt 0.389451 0.487967
vt 0.288290 0.639647
vt 0.283148 0.639416
vt 0.283149 0.500908
vt 0.288290 0.501128
vt 0.132563 0.939887
vt 0.124935 0.939866
vt 0.124363 0.502830
vt 0.131991 0.502850
vt 0.123745 0.939649
vt 0.116121 0.939682
vt 0.623051 0.779872
vt 0.618168 0.779824
vt 0.618168 0.500029
vt 0.623051 0.500061
vt 0.089995 0.000066
vt 0.105199 0.001828
vt 0.105199 0.370391
vt 0.089995 0.368629
vt 0.360549 0.500000
vt 0.270114 0.501385
vt 0.276824 0.500908
vt 0.276824 0.638328
vt 0.272610 0.641147
vt 0.639451 0.512033
vt 0.639451 0.750000
vt 0.089862 0.416819
vt 0.075810 0.405386
vt 0.075810 0.036814
vt 0.089862 0.000066
vt 0.875000 0.750000
vt 0.123312 0.024157
vt 0.113448 0.024157
vt 0.113448 0.000066
vt 0.123312 0.000066
vt 0.123773 0.498455
vt 0.123034 0.503242
vt 0.320805 0.505265
vt 0.320805 0.500980
vt 0.323706 0.500908
vt 0.323706 0.505193
vt 0.298035 0.638497
vt 0.293755 0.638317
vt 0.293755 0.500908
vt 0.298035 0.501088
vt 0.132563 0.498037
vt 0.124947 0.498036
vt 0.139451 0.750000
vt 0.125000 0.750000
vt 0.316722 0.500908
vt 0.316722 0.506413
vt 0.313820 0.506429
vt 0.313820 0.500925
vt 0.116148 0.945907
vt 0.123773 0.945873
vt 0.320214 0.500908
vt 0.320214 0.506413
vt 0.317312 0.506429
vt 0.317312 0.500925
vt 0.124919 0.946094
vt 0.132547 0.946114
vt 0.270114 0.000295
vt 0.390386 0.003202
vt 0.390386 0.500317
vt 0.270114 0.497411
vt 0.979089 0.497407
vt 0.969864 0.497407
vt 0.969864 0.000295
vt 0.979089 0.000295
vt 0.076751 0.000032
vt 0.096571 0.000032
vt 0.096571 0.076688
vt 0.076751 0.076688
vt 0.000000 0.000000
vt 0.301011 0.621216
vt 0.298626 0.621266
vt 0.298626 0.500959
vt 0.301011 0.500908
vt 0.303986 0.621267
vt 0.301601 0.621217
vt 0.301601 0.500908
vt 0.303986 0.500959
vt 0.306036 0.584547
vt 0.304577 0.584522
vt 0.304577 0.500908
vt 0.306036 0.500933
vt 0.076688 0.999968
vt 0.000032 0.999755
vt 0.000032 0.000032
vt 0.076688 0.000245
vt 0.307495 0.584572
vt 0.307495 0.500957
vt 0.140422 0.833295
vt 0.134571 0.833335
vt 0.134571 0.498077
vt 0.140422 0.498036

# vertex normals
vn 0.100001 -0.994911 -0.012300
vn -0.994420 -0.100202 0.033001
vn -0.038002 0.008600 -0.999241
vn -0.100001 0.994910 0.012400
vn 0.036801 -0.000100 0.999323
vn 0.994514 0.100301 -0.029700
vn -0.101795 0.994147 -0.036198
vn 0.101104 -0.994742 0.016301
vn -0.993896 -0.100500 0.045500
vn 0.099300 -0.994596 -0.030300
vn -0.098700 0.994104 0.044900
vn 0.098896 -0.994257 -0.040898
vn -0.098101 0.993305 0.061000
vn 0.097298 -0.992178 -0.078198
vn 0.082204 -0.996547 -0.011701
vn -0.100002 0.994918 0.011700
vn -0.108095 0.107095 -0.988355
vn -0.125204 -0.000300 -0.992131
vn 0.152295 -0.988169 -0.018099
vn 0.174299 -0.099099 0.979693
vn -0.019100 -0.014600 0.999711
vn -0.152207 0.988245 0.014301
vn -0.930815 -0.098002 0.352106
vn -0.946925 -0.319908 0.031501
vn -0.984791 0.169799 0.036800
vn 0.122895 -0.017599 0.992263
vn -0.082204 0.996547 0.011701
vn 0.125204 0.000300 0.992131
vn -0.082296 0.996556 0.010200
vn 0.081800 -0.996597 -0.010200
vn 0.039899 -0.009000 0.999163
vn 0.100002 -0.994918 -0.011700
vn -0.090598 0.003300 -0.995882
vn 0.100001 -0.994910 -0.012400
vn 0.090598 -0.003300 0.995882
vn 0.789637 0.613229 -0.020601
vn 0.968085 -0.247996 -0.036199
vn 0.921294 0.097299 -0.376497
vn 0.995039 0.092704 -0.036101
vn 0.994263 0.100396 -0.036899
vn -0.153003 0.988116 0.014700
vn -0.152306 0.988240 0.013601
vn 0.153296 -0.988073 -0.014600
vn 0.152305 -0.988230 -0.014300
vn -0.151905 0.988231 0.018001
vn 0.153003 -0.988116 -0.014700
vn 0.030401 0.064802 0.997435
vn -0.994327 -0.100403 0.035101
vn -0.100002 0.994917 0.011800
vn -0.039899 0.009000 -0.999163
vn 0.099398 -0.994984 -0.011300
vn -0.100002 0.994916 0.011900
vn 0.037902 -0.008100 0.999249
vn -0.037902 0.008100 -0.999249
vn 0.046400 -0.007300 0.998896
vn -0.046400 0.007300 -0.998896
vn 0.100002 -0.994916 -0.011900
vn 0.993896 0.100500 -0.045500
vn 0.094102 -0.984917 -0.145202

# Mesh
g Cube
usemtl 1001
f 1/1/1 2/2/1 3/3/1
f 3/3/1 4/4/1 1/1/1
f 5/5/2 6/6/2 7/7/2
f 7/7/2 8/8/2 5/5/2
f 3/9/3 2/10/3 9/11/3
f 9/11/3 10/12/3 3/9/3
f 11/13/4 10/14/4 9/15/4
f 9/15/4 12/16/4 11/13/4
f 6/17/5 13/18/5 14/19/5
f 14/19/5 7/20/5 6/17/5
f 13/21/6 15/22/6 16/23/6
f 16/23/6 14/24/6 13/21/6
f 17/25/7 9/26/7 10/27/7
f 10/27/7 18/28/7 17/25/7
f 19/29/8 10/30/8 9/31/8
f 9/31/8 20/32/8 19/29/8
f 21/33/9 10/34/9 22/35/9
f 22/35/9 23/36/9 21/33/9
f 24/37/10 10/38/10 9/39/10
f 9/39/10 25/40/10 24/37/10
f 26/41/11 9/42/11 10/43/11
f 10/43/11 27/44/11 26/41/11
f 28/45/12 10/46/12 9/47/12
f 9/47/12 29/48/12 28/45/12
f 30/49/13 9/50/13 10/51/13
f 10/51/13 31/52/13 30/49/13
f 32/53/14 10/54/14 9/55/14
f 9/55/14 33/56/14 32/53/14
f 34/2/15 2/2/15 1/1/15
f 1/1/15 35/1/15 34/2/15
f 36/57/16 11/58/16 12/59/16
f 12/59/16 37/60/16 36/57/16
f 38/9/17 12/9/17 7/61/17
f 7/61/17 39/61/17 38/9/17
f 40/11/18 9/11/18 2/10/18
f 2/10/18 34/10/18 40/11/18
f 41/62/19 14/62/19 16/63/19
f 16/63/19 42/63/19 41/62/19
f 43/61/20 7/61/20 12/9/20
f 12/9/20 44/9/20 43/61/20
f 45/64/21 46/65/21 47/66/21
f 47/66/21 48/67/21 45/64/21
f 49/68/22 10/69/22 11/70/22
f 11/70/22 50/71/22 49/68/22
f 34/72/23 51/73/23 52/74/23
f 52/74/23 40/75/23 34/72/23
f 40/11/24 52/76/24 43/77/24
f 43/77/24 44/4/24 40/11/24
f 35/78/25 53/79/25 51/80/25
f 51/80/25 34/81/25 35/78/25
f 35/82/26 1/83/26 6/84/26
f 6/84/26 53/85/26 35/82/26
f 44/86/27 12/87/27 9/88/27
f 9/88/27 40/89/27 44/86/27
f 51/90/28 5/90/28 8/76/28
f 8/76/28 52/76/28 51/90/28
f 53/91/29 6/92/29 5/93/29
f 5/93/29 51/94/29 53/91/29
f 52/76/30 8/76/30 7/77/30
f 7/77/30 43/77/30 52/76/30
f 37/95/31 54/96/31 55/97/31
f 55/97/31 36/98/31 37/95/31
f 47/66/31 46/65/31 56/99/31
f 56/99/31 57/100/31 47/66/31
f 58/1/32 1/1/32 57/1/32
f 57/1/32 59/1/32 58/1/32
f 46/101/4 13/102/4 6/103/4
f 6/103/4 56/104/4 46/101/4
f 60/9/33 3/9/33 10/12/33
f 10/12/33 49/12/33 60/9/33
f 57/1/34 1/1/34 4/4/34
f 4/4/34 47/4/34 57/1/34
f 42/105/35 16/106/35 15/107/35
f 15/107/35 61/108/35 42/105/35
f 54/61/32 7/61/32 14/109/32
f 14/109/32 55/109/32 54/61/32
f 50/110/36 41/111/36 42/112/36
f 42/112/36 49/113/36 50/110/36
f 60/11/37 61/114/37 62/115/37
f 62/115/37 63/12/37 60/11/37
f 49/116/38 42/117/38 61/118/38
f 61/118/38 60/119/38 49/116/38
f 64/62/39 41/62/39 50/120/39
f 50/120/39 65/120/39 64/62/39
f 48/121/40 63/122/40 62/123/40
f 62/123/40 45/124/40 48/121/40
f 62/125/41 13/126/41 46/65/41
f 46/65/41 45/64/41 62/125/41
f 50/127/42 11/128/42 36/129/42
f 36/129/42 65/130/42 50/127/42
f 64/109/43 55/109/43 14/109/43
f 14/109/43 41/109/43 64/109/43
f 63/4/44 4/4/44 3/3/44
f 3/3/44 60/3/44 63/4/44
f 61/131/45 15/132/45 13/133/45
f 13/133/45 62/134/45 61/131/45
f 48/4/46 47/4/46 4/4/46
f 4/4/46 63/4/46 48/4/46
f 65/135/47 36/98/47 55/97/47
f 55/97/47 64/136/47 65/135/47
f 66/9/48 38/9/48 39/61/48
f 39/61/48 67/61/48 66/9/48
f 68/137/48 69/137/48 58/138/48
f 58/138/48 59/138/48 68/137/48
f 66/139/49 37/140/49 12/141/49
f 12/141/49 38/142/49 66/139/49
f 59/143/31 57/100/31 56/99/31
f 56/99/31 68/144/31 59/143/31
f 69/137/50 6/137/50 1/138/50
f 1/138/50 58/138/50 69/137/50
f 68/145/16 56/146/16 6/147/16
f 6/147/16 69/148/16 68/145/16
f 39/61/51 7/61/51 54/61/51
f 54/61/51 67/61/51 39/61/51
f 67/149/31 54/96/31 37/95/31
f 37/95/31 66/150/31 67/149/31
f 70/151/52 71/152/52 21/153/52
f 21/153/52 23/154/52 70/151/52
f 23/155/53 22/156/53 72/157/53
f 72/157/53 70/158/53 23/155/53
f 71/11/54 9/11/54 10/12/54
f 10/12/54 21/12/54 71/11/54
f 73/159/55 70/160/55 72/161/55
f 72/161/55 74/162/55 73/159/55
f 75/163/55 73/163/55 74/163/55
f 74/163/55 76/163/55 75/163/55
f 77/164/52 71/165/52 70/166/52
f 70/166/52 73/167/52 77/164/52
f 78/11/56 9/11/56 71/11/56
f 71/11/56 77/11/56 78/11/56
f 74/168/57 72/169/57 9/170/57
f 9/170/57 78/171/57 74/168/57
f 79/11/56 80/11/56 81/11/56
f 81/11/56 82/11/56 79/11/56
f 76/172/57 74/173/57 78/174/57
f 78/174/57 80/175/57 76/172/57
f 80/11/56 78/11/56 77/11/56
f 77/11/56 81/11/56 80/11/56
f 81/11/52 77/11/52 73/11/52
f 73/11/52 75/11/52 81/11/52
f 83/176/58 84/177/58 79/178/58
f 79/178/58 82/179/58 83/176/58
f 82/11/52 81/11/52 75/11/52
f 75/11/52 83/11/52 82/11/52
f 83/163/55 75/163/55 76/163/55
f 76/163/55 84/163/55 83/163/55
f 84/180/57 76/172/57 80/175/57
f 80/175/57 79/181/57 84/180/57
f 85/182/59 10/183/59 9/184/59
f 9/184/59 86/185/59 85/182/59
