# File produced by Open Asset Import Library (http://www.assimp.sf.net)
# (assimp v3.1.128981410)

mtllib BookOne.mtl

# vertex positions
v 0.039924 0.088414 0.403237
v 0.039924 0.088414 0.247020
v -0.313967 0.088414 0.247020
v -0.313967 0.088414 0.403237
v -0.313967 0.044035 0.403237
v 0.039924 0.044035 0.403237
v -0.313967 0.046582 0.247020
v -0.311978 0.046771 0.398941
v -0.311978 0.086056 0.398941
v -0.313967 0.085866 0.247020
v -0.313967 0.044035 0.247020
v 0.039924 0.044035 0.247020
v 0.039908 0.046638 0.400316
v 0.039924 0.046582 0.247020
v 0.039924 0.085866 0.247020
v 0.039908 0.085922 0.400316
v -0.315528 0.085863 0.244436
v -0.313967 0.085866 0.244553
v -0.315528 0.085863 0.246904
v -0.313538 0.046768 0.398824
v -0.315528 0.046579 0.246904
v -0.315528 0.044031 0.244436
v -0.313967 0.044035 0.244553
v -0.315528 0.044031 0.246904
v 0.041465 0.044035 0.244552
v 0.039924 0.044035 0.244553
v 0.039924 0.046582 0.244553
v 0.041465 0.046582 0.244552
v 0.041465 0.046582 0.247019
v -0.315528 0.046579 0.244436
v -0.313967 0.046582 0.244553
v 0.039924 0.085866 0.244553
v 0.041449 0.046638 0.400315
v 0.039924 0.088414 0.244553
v -0.313967 0.088414 0.244553
v -0.315528 0.088410 0.244436
v 0.041449 0.085922 0.400315
v 0.041465 0.088414 0.244552
v 0.041465 0.088414 0.247019
v 0.041465 0.044035 0.403236
v 0.041465 0.088414 0.403236
v 0.041465 0.085866 0.247019
v 0.041465 0.044035 0.247019
v 0.041465 0.085866 0.244552
v -0.315528 0.044031 0.403121
v -0.315528 0.088410 0.246904
v -0.315528 0.088410 0.403121
v -0.313538 0.086052 0.398824

# UV coordinates
vt 0.000150 0.499850
vt 0.000150 0.000150
vt 0.499850 0.000150
vt 0.499850 0.499850
vt 0.499850 0.500150
vt 0.499850 0.999850
vt 0.000150 0.999850
vt 0.000150 0.500150
vt 0.947816 0.474135
vt 0.947816 0.994549
vt 0.474135 0.996626
vt 0.474135 0.476212
vt 0.500150 0.499850
vt 0.500150 0.000150
vt 0.999850 0.000150
vt 0.999850 0.499850
vt 0.473835 0.474739
vt 0.473835 0.999850
vt 0.000150 0.999247
vt 0.000150 0.474135
vt 0.535268 0.000150
vt 0.535268 0.473835
vt 0.000150 0.473835
vt 0.610650 0.250000
vt 0.389350 0.014350
vt 0.389350 0.250000
vt 0.125000 0.500000
vt 0.375000 0.500000
vt 0.389350 0.500000
vt 0.375000 0.250000
vt 0.610650 0.500000
vt 0.389350 0.735650
vt 0.625000 0.500000
vt 0.625000 0.250000
vt 0.875000 0.500000
vt 0.610650 0.735650
vt 0.375000 0.750000
vt 0.625000 0.750000
vt 0.375000 0.000000
vt 0.625000 0.000000
vt 0.610650 0.014350
vt 0.875000 0.750000
vt 0.125000 0.750000
vt 0.375000 1.000000
vt 0.625000 1.000000

# vertex normals
vn 0.000000 1.000000 0.000000
vn 0.000000 0.000000 1.000000
vn -0.999914 0.000000 0.013100
vn 0.000000 -1.000000 0.000000
vn 1.000000 0.000000 0.000100
vn 0.000000 0.000000 -1.000000
vn 0.002200 -0.999998 0.000000
vn -0.002200 0.999997 -0.001200
vn -0.000900 0.000000 -1.000000
vn 0.074502 0.000000 -0.997221
vn 0.000000 1.000000 -0.000400
vn 0.999986 0.000000 -0.005400
vn 0.999995 -0.003200 0.000100
vn 0.999995 0.003100 0.000100
vn 1.000000 0.000000 0.000000
vn 0.000000 -1.000000 0.000400
vn 0.000900 0.000000 1.000000
vn -0.934280 0.356492 0.005800
vn -1.000000 0.000000 0.000000
vn -0.907426 0.000000 -0.420212
vn -0.924751 -0.380521 0.006200
vn -0.002200 0.999998 0.000000
vn 0.002200 -0.999997 0.001200
vn -0.074402 0.000000 0.997228

# Mesh
g Cube_Cube
usemtl Material
f 1/1/1 2/2/1 3/3/1
f 3/3/1 4/4/1 1/1/1
f 5/5/2 6/6/2 1/7/2
f 1/7/2 4/8/2 5/5/2
f 7/9/3 8/10/3 9/11/3
f 9/11/3 10/12/3 7/9/3
f 5/13/4 11/14/4 12/15/4
f 12/15/4 6/16/4 5/13/4
f 13/17/5 14/18/5 15/19/5
f 15/19/5 16/20/5 13/17/5
f 14/2/6 7/21/6 10/22/6
f 10/22/6 15/23/6 14/2/6
f 17/24/7 18/24/7 10/24/7
f 10/24/7 19/24/7 17/24/7
f 20/25/8 8/25/8 7/26/8
f 7/26/8 21/26/8 20/25/8
f 22/27/7 23/27/7 11/27/7
f 11/27/7 24/27/7 22/27/7
f 25/28/9 26/28/9 27/29/9
f 27/29/9 28/29/9 25/28/9
f 28/29/1 27/29/1 14/29/1
f 14/29/1 29/29/1 28/29/1
f 30/26/10 31/26/10 23/30/10
f 23/30/10 22/30/10 30/26/10
f 32/31/4 15/31/4 10/24/4
f 10/24/4 18/24/4 32/31/4
f 29/29/11 14/29/11 13/32/11
f 13/32/11 33/32/11 29/29/11
f 23/30/6 31/26/6 27/29/6
f 27/29/6 26/28/6 23/30/6
f 34/33/6 32/31/6 18/24/6
f 18/24/6 35/34/6 34/33/6
f 26/28/4 12/28/4 11/27/4
f 11/27/4 23/27/4 26/28/4
f 36/34/10 35/34/10 18/24/10
f 18/24/10 17/24/10 36/34/10
f 35/35/1 3/35/1 2/33/1
f 2/33/1 34/33/1 35/35/1
f 33/32/9 13/32/9 16/36/9
f 16/36/9 37/36/9 33/32/9
f 31/26/1 7/26/1 14/29/1
f 14/29/1 27/29/1 31/26/1
f 38/33/1 34/33/1 2/33/1
f 2/33/1 39/33/1 38/33/1
f 40/37/12 33/32/12 37/36/12
f 37/36/12 41/38/12 40/37/12
f 41/38/13 37/36/13 42/31/13
f 42/31/13 39/33/13 41/38/13
f 43/28/14 29/29/14 33/32/14
f 33/32/14 40/37/14 43/28/14
f 38/33/15 39/33/15 42/31/15
f 42/31/15 44/31/15 38/33/15
f 28/29/15 29/29/15 43/28/15
f 43/28/15 25/28/15 28/29/15
f 37/36/16 16/36/16 15/31/16
f 15/31/16 42/31/16 37/36/16
f 43/28/4 12/28/4 26/28/4
f 26/28/4 25/28/4 43/28/4
f 42/31/4 15/31/4 32/31/4
f 32/31/4 44/31/4 42/31/4
f 44/31/9 32/31/9 34/33/9
f 34/33/9 38/33/9 44/31/9
f 39/33/1 2/33/1 1/38/1
f 1/38/1 41/38/1 39/33/1
f 41/38/17 1/38/17 6/37/17
f 6/37/17 40/37/17 41/38/17
f 40/37/4 6/37/4 12/28/4
f 12/28/4 43/28/4 40/37/4
f 45/39/18 20/25/18 21/26/18
f 21/26/18 24/30/18 45/39/18
f 17/24/19 19/24/19 46/34/19
f 46/34/19 36/34/19 17/24/19
f 47/40/20 48/41/20 20/25/20
f 20/25/20 45/39/20 47/40/20
f 46/34/21 19/24/21 48/41/21
f 48/41/21 47/40/21 46/34/21
f 22/30/19 24/30/19 21/26/19
f 21/26/19 30/26/19 22/30/19
f 47/42/22 4/42/22 3/35/22
f 3/35/22 46/35/22 47/42/22
f 24/27/7 11/27/7 5/43/7
f 5/43/7 45/43/7 24/27/7
f 19/24/23 10/24/23 9/41/23
f 9/41/23 48/41/23 19/24/23
f 21/26/22 7/26/22 31/26/22
f 31/26/22 30/26/22 21/26/22
f 48/41/10 9/41/10 8/25/10
f 8/25/10 20/25/10 48/41/10
f 46/35/22 3/35/22 35/35/22
f 35/35/22 36/35/22 46/35/22

# Mesh
g Cube_Cube
usemtl Material
f 45/44/24 5/44/24 4/45/24
f 4/45/24 47/45/24 45/44/24
